<svg xmlns="http://www.w3.org/2000/svg" viewBox="0 0 512 512" width="512" height="512">
  <rect width="512" height="512" rx="112" fill="#1f2933"/>
  <rect x="104" y="80" width="304" height="120" rx="20" fill="#161d24"/>
  <text x="380" y="168" font-family="-apple-system, Segoe UI, sans-serif" font-size="68" font-weight="600" fill="#ffffff" text-anchor="end">123</text>
  <g fill="#323f4b">
    <rect x="104" y="232" width="64" height="64" rx="16"/>
    <rect x="184" y="232" width="64" height="64" rx="16"/>
    <rect x="264" y="232" width="64" height="64" rx="16"/>
    <rect x="104" y="312" width="64" height="64" rx="16"/>
    <rect x="184" y="312" width="64" height="64" rx="16"/>
    <rect x="264" y="312" width="64" height="64" rx="16"/>
    <rect x="104" y="392" width="144" height="64" rx="16"/>
    <rect x="264" y="392" width="64" height="64" rx="16"/>
  </g>
  <g fill="#2f6fed">
    <rect x="344" y="232" width="64" height="64" rx="16"/>
    <rect x="344" y="312" width="64" height="64" rx="16"/>
  </g>
  <rect x="344" y="392" width="64" height="64" rx="16" fill="#f6a609"/>
</svg>
